<?xml version="1.0" encoding="UTF-8" standalone="no"?>
<svg
   xmlns="http://www.w3.org/2000/svg"
   viewBox="0 0 187.85184 123.01694"
   id="svg10"
   version="1.1">
  <metadata
     id="metadata16">
    <rdf:RDF>
      <cc:Work
         rdf:about="">
        <dc:format>image/svg+xml</dc:format>
        <dc:type
           rdf:resource="http://purl.org/dc/dcmitype/StillImage" />
        <dc:title></dc:title>
      </cc:Work>
    </rdf:RDF>
  </metadata>
  <defs
     id="defs14" />
  <path
     id="path3724"
     d="m 0.28408681,121.76694 c -0.262911,-0.6875 -0.361288,-28.250009 -0.218615,-61.250006 l 0.259405,-60 L 55.574877,0.258467 110.82488,0 V 61.508467 123.01694 H 55.793492 c -43.103497,0 -55.13499419,-0.27093 -55.50940519,-1.25 z M 66.380976,107.25163 c 0.580855,-0.40408 1.161224,-2.47821 1.28971,-4.60918 0.247775,-4.109419 -3.258897,-12.161989 -7.133538,-16.381122 l -2.071433,-2.255607 -2.320419,2.179921 c -1.27623,1.198956 -2.320419,2.533449 -2.320419,2.965529 0,1.19463 -9.721806,10.08254 -13.677343,12.504149 -5.012224,3.06852 -2.880948,3.86162 10.377234,3.86162 7.626521,0 11.598743,0.39882 12.45,1.25 1.433948,1.43382 1.938615,1.50563 3.406208,0.48469 z m 42.202904,-53.604973 0.259,-51.629723 H 55.333877 1.8248768 v 47.361835 47.361832 l 7.3042595,1.45342 c 8.4886557,1.68909 10.1126907,1.47052 8.6991167,-1.17077 -2.258005,-4.21913 -0.421845,-25.165887 3.008249,-34.317858 2.153249,-5.745171 7.826052,-12.688459 10.366721,-12.688459 2.042887,0 4.304004,-3.093042 5.69227,-7.786607 1.539394,-5.204516 5.282967,-9.522164 7.690746,-8.87012 0.956251,0.25896 2.946145,0.738708 4.421988,1.066106 2.858256,0.63407 4.276619,3.347075 3.988183,7.628488 -0.125257,1.859266 1.193067,3.864693 4.93034,7.5 2.805723,2.729173 6.216642,6.69779 7.579822,8.819149 2.437354,3.792975 2.45184,3.938546 0.872452,8.767247 -1.856592,5.676205 -1.594465,6.438759 4.739434,13.787514 2.31353,2.684219 6.376933,7.407674 9.029782,10.49656 5.671989,6.6043 9.032202,8.56337 15.14417,8.829379 4.91307,0.21382 6.34449,1.80741 3.85745,4.29445 -1.45339,1.45339 -1.12745,1.55297 3.79249,1.15867 l 5.38253,-0.43138 z M 50.464977,67.920543 c 2.475248,-1.703016 4.235425,-3.361418 3.911504,-3.685338 -0.323921,-0.323921 -2.185999,-1.137987 -4.137951,-1.809037 -2.660618,-0.914677 -3.635883,-0.930863 -3.896075,-0.06466 -0.732335,2.438006 -1.367969,8.655428 -0.884883,8.655428 0.278825,0 2.532157,-1.393376 5.007405,-3.096391 z m 4.700829,-13.903609 c -1.795483,-3.03951 -4.340929,-4.0549 -4.340929,-1.731617 0,1.002375 4.421061,4.584739 5.806536,4.705008 0.168595,0.01464 -0.490928,-1.323391 -1.465607,-2.973391 z m 72.659074,10.485119 v -33.51488 l 29.75,0.26488 29.74999,0.264881 0.26348,33.25 0.26348,33.250007 h -30.01347 -30.01348 z m 39,23.914138 c 0,-0.243504 -2.45241,-2.895147 -5.4498,-5.892539 l -5.44981,-5.449804 -2.07192,2.634025 c -2.29672,2.9198 -3.49866,6.637928 -2.76613,8.556825 0.34103,0.893323 2.66488,1.157933 8.10785,0.923233 4.1964,-0.18095 7.62981,-0.528236 7.62981,-0.77174 z M 133.2389,87.653472 c -0.36756,-0.957836 0.67038,-1.554324 3.48889,-2.005023 3.3966,-0.543137 4.93543,-1.714357 10.03066,-7.634401 5.39457,-6.267847 5.91736,-7.259002 5.04249,-9.560077 -1.39143,-3.659748 -1.37819,-3.698618 2.92736,-8.589974 2.14688,-2.438985 4.05938,-5.53984 4.25,-6.89079 0.27669,-1.96096 1.01283,-2.520274 3.65056,-2.773657 3.02553,-0.290637 3.43494,0.01602 4.85796,3.638675 0.89052,2.267044 2.60023,4.432768 4.00456,5.072621 3.91,1.781516 6.66391,9.261683 6.75547,18.349213 l 0.078,7.743125 3,-0.0084 c 5.66018,-0.01592 5.5575,0.511315 5.26755,-27.047675 l -0.26753,-25.430175 -28.74999,-0.265335 -28.75,-0.265336 v 28.515336 28.515332 h 2.46862 c 1.67361,0 2.30011,-0.439092 1.9454,-1.363459 z m 29.83073,-20.136538 c -0.5048,-2.64067 -1.03747,-2.900507 -3.78485,-1.84624 -1.50449,0.577327 -1.42636,0.867012 0.66821,2.477765 3.16653,2.435088 3.68286,2.330464 3.11664,-0.631525 z M 159.366,60.950403 c 1.07627,-1.741443 -0.14952,-2.110241 -1.52106,-0.457635 -0.78875,0.950384 -0.86462,1.524166 -0.20152,1.524166 0.58488,0 1.36004,-0.479939 1.72258,-1.066531 z"
     style="fill:#282828" />
</svg>
