<?xml version="1.0" encoding="UTF-8" standalone="no"?>
<!-- Created with Inkscape (http://www.inkscape.org/) -->

<svg
   xmlns:dc="http://purl.org/dc/elements/1.1/"
   xmlns:cc="http://creativecommons.org/ns#"
   xmlns:rdf="http://www.w3.org/1999/02/22-rdf-syntax-ns#"
   xmlns:svg="http://www.w3.org/2000/svg"
   xmlns="http://www.w3.org/2000/svg"
   xmlns:sodipodi="http://sodipodi.sourceforge.net/DTD/sodipodi-0.dtd"
   xmlns:inkscape="http://www.inkscape.org/namespaces/inkscape"
   width="210mm"
   height="297mm"
   viewBox="0 0 210 297"
   version="1.1"
   id="svg8"
   inkscape:version="0.92.4 (5da689c313, 2019-01-14)"
   sodipodi:docname="drawing.svg">
  <defs
     id="defs2" />
  <sodipodi:namedview
     id="base"
     pagecolor="#ffffff"
     bordercolor="#666666"
     borderopacity="1.0"
     inkscape:pageopacity="0.0"
     inkscape:pageshadow="2"
     inkscape:zoom="0.35"
     inkscape:cx="442.85714"
     inkscape:cy="1974.2857"
     inkscape:document-units="mm"
     inkscape:current-layer="layer1"
     showgrid="false"
     inkscape:window-width="1366"
     inkscape:window-height="676"
     inkscape:window-x="-8"
     inkscape:window-y="-8"
     inkscape:window-maximized="1" />
  <metadata
     id="metadata5">
    <rdf:RDF>
      <cc:Work
         rdf:about="">
        <dc:format>image/svg+xml</dc:format>
        <dc:type
           rdf:resource="http://purl.org/dc/dcmitype/StillImage" />
        <dc:title></dc:title>
      </cc:Work>
    </rdf:RDF>
  </metadata>
  <g
     inkscape:label="Layer 1"
     inkscape:groupmode="layer"
     id="layer1">
    <path
       id="path3713"
       d="m -221.14505,-260.56256 c 0.72581,-3.25718 1.57233,-6.49362 2.85469,-9.57752 1.27219,-3.01366 3.39088,-5.3171 5.88704,-7.35243 6.37484,-4.26101 12.9726,-7.68808 20.09475,-10.35801 5.73479,-2.10757 11.49265,-4.14806 17.28078,-6.10487 6.40207,-2.09764 12.92195,-3.7815 19.47582,-5.32336 4.65318,-1.02097 9.4241,-1.88677 14.20145,-1.60375 1.37982,0.43067 2.13375,0.52449 3.29196,1.42897 2.0399,1.59303 3.86559,4.75921 5.3055,6.89083 3.11432,4.66209 6.76712,8.92196 9.95655,13.52696 3.01762,4.1929 4.47916,9.0075 5.65981,13.9583 1.04888,5.22136 2.48076,10.34875 3.81904,15.49964 1.33494,4.48698 2.01139,9.08709 2.28796,13.74697 0.23078,6.51993 0.22058,13.03806 -0.43837,19.53129 -0.38706,4.80277 -2.09641,9.26164 -3.82956,13.70101 -1.38044,3.37882 -2.92249,6.68667 -4.33918,10.05041 -1.29786,3.87699 -2.76432,7.68045 -4.44803,11.40659 -1.87919,3.86563 -4.02062,7.60439 -6.10169,11.36602 -2.0188,3.64506 -3.80037,7.40283 -5.00614,11.39437 -1.03028,4.0348 -1.18349,8.20773 -1.29263,12.34852 -0.18097,4.20634 1.55846,7.84451 3.74208,11.31039 3.06879,4.08146 7.08997,6.79293 11.61305,9.01525 7.22304,3.27501 14.92699,3.26799 22.695379,3.13173 14.836672,-0.57074 29.189251,-4.71478 43.259623,-9.14358 16.484923,-5.52334 32.877341,-11.33997 49.1332952,-17.50529 12.6621994,-4.9203 24.8232598,-10.99106 36.7316048,-17.49928 -1.387835,0.78894 -5.073127,3.67874 -4.163507,2.36683 0.962856,-1.38869 2.901228,-1.73373 4.33955,-2.62073 4.832969,-2.98048 9.469739,-6.13015 13.853578,-9.73875 3.009794,-2.62098 5.638409,-5.64379 7.47758,-9.2044 0.992508,-1.92148 1.321022,-3.04336 2.051693,-5.07259 2.565048,-8.38636 1.661959,-17.12344 0.607616,-25.67174 -1.738093,-11.45499 -3.788378,-22.8625 -6.288617,-34.17585 -1.611093,-7.36336 -3.668633,-14.61625 -5.474848,-21.93097 -1.540161,-6.10037 -3.422597,-12.24209 -6.63652,-17.69872 -0.738703,-1.25418 -1.596078,-2.43457 -2.394117,-3.65186 -4.852736,-6.87488 -10.897885,-12.71691 -17.216229,-18.21677 -3.791256,-3.1309 -7.6276598,-6.30032 -11.8326096,-8.87468 -3.0045711,-1.83949 -4.45790051,-2.40673 -7.6795208,-3.91552 -8.6127776,-3.78619 -17.8642956,-5.42899 -27.1868446,-6.12071 -6.786869,-0.43246 -13.424567,0.75888 -19.962072,2.42448 -4.22725,1.23251 -8.437869,2.51021 -12.515394,4.17875 -0.846828,0.47239 -1.733299,0.87133 -2.580521,1.34308 -0.348546,0.19407 -1.373915,0.81148 -1.027248,0.61407 14.679581,-8.35914 10.104951,-6.26925 7.044082,-3.71507 -2.896841,2.38583 -5.397717,5.17951 -7.87862,7.98073 -3.745433,4.31523 -7.457818,8.66373 -10.9606,13.17932 -2.501717,3.13074 -4.314266,6.59398 -5.630217,10.36082 -1.347329,4.12409 -2.280721,8.3633 -3.440244,12.54054 -1.244812,3.8568 -2.309638,7.76547 -3.424624,11.66032 -0.609198,2.4089 -1.277512,4.78668 -2.169319,7.10657 -1.345768,3.2515 -2.271352,6.6494 -3.355102,9.99149 -1.005646,3.4173 -2.745851,6.46165 -4.797287,9.34253 -4.05463,5.17097 -10.31099,7.68826 -15.88465,10.88626 -0.47449,0.19208 -0.9519,0.37713 -1.42348,0.57625 -1.06475,0.44959 -2.29504,1.00056 -3.31437,1.53068 -0.66255,0.34457 -2.60847,1.45552 -1.96093,1.08351 8.74526,-5.02416 9.37954,-5.47896 5.12816,-2.76887 -5.13136,3.2437 -10.45368,6.23399 -15.79913,9.0871 -1.85542,0.99032 -4.35925,1.55549 -6.38691,2.10469 -4.05933,0.7192 -8.12511,1.28898 -12.12184,2.32485 -3.36385,0.69812 -6.55011,1.99088 -9.8028,3.05509 -2.40209,0.69289 -4.89808,0.93845 -7.38541,1.0664 -1.71799,0.21339 -3.20439,-0.13802 -4.63585,-1.08706 -1.27069,-0.82525 -2.10359,-1.98417 -2.96355,-3.19737 -0.80132,-1.34992 -1.85841,-2.54412 -3.05292,-3.55705 -0.84344,-0.89103 -1.98343,-1.37295 -2.93511,-2.11342 -0.52732,-0.41029 -1.00636,-0.87932 -1.52014,-1.30645 -1.17363,-1.27416 -2.56374,-2.32041 -3.60593,-3.70934 -0.85167,-1.1794 -1.46409,-2.52526 -2.41429,-3.63211 -0.85195,-1.21173 -1.93942,-2.20525 -2.93935,-3.28697 -1.08117,-0.92045 -2.17668,-1.87764 -3.45281,-2.51696 -1.17151,-0.47444 -2.32322,-0.99277 -3.51111,-1.43727 -1.35559,-0.44793 -2.78657,-0.51959 -4.20136,-0.57328 -1.50541,-0.0374 -3.01149,-0.0267 -4.5172,-0.0227 -1.60259,-0.22843 -3.15904,-0.58581 -4.65248,-1.21399 -1.53547,-0.53858 -2.81352,-1.63474 -4.00983,-2.70921 -0.99137,-1.06172 -1.86188,-2.18888 -2.49103,-3.50141 -0.78123,-1.34705 -1.31786,-2.79681 -1.93313,-4.21877 -0.51866,-1.32877 -1.05193,-2.64981 -1.61054,-3.96276 -0.62169,-1.46736 -0.8345,-3.03951 -0.9567,-4.61433 0,0 9.94089,-5.14934 9.94089,-5.14934 v 0 c 0.0818,1.45648 0.21788,2.92065 0.77676,4.28509 0.55791,1.31176 1.13304,2.61378 1.6172,3.95507 0.6022,1.41435 1.10085,2.86361 1.91724,4.18146 0.5462,1.17734 1.36152,2.17089 2.24584,3.11448 1.14191,0.97821 2.32541,1.92896 3.78554,2.37867 1.43002,0.48358 2.90956,0.83852 4.42622,0.8732 1.51876,-10e-4 3.03879,-0.008 4.55587,0.0737 1.50083,0.10914 3.00357,0.28937 4.4118,0.85542 1.2168,0.48673 2.43178,0.97232 3.6005,1.56922 1.30163,0.80235 2.51346,1.76592 3.62147,2.81815 1.02602,1.08694 2.10917,2.12141 2.98698,3.3387 0.92064,1.15354 1.58611,2.47131 2.42732,3.67971 0.99637,1.30628 2.33172,2.30501 3.44176,3.51229 1.44879,1.21857 3.05001,2.20251 4.48758,3.43396 1.21959,1.11272 2.36007,2.32893 3.19849,3.76164 0.79043,1.07916 1.54614,2.11729 2.73939,2.79576 1.34462,0.68717 2.71094,0.73386 4.2025,0.57708 2.41945,-0.16379 4.83803,-0.46652 7.14547,-1.25153 3.21315,-1.09725 6.43195,-2.19147 9.75665,-2.90967 4.00343,-0.95219 8.07578,-1.46717 12.09161,-2.34617 1.81457,-0.53623 2.3511,-0.65342 4.13807,-1.3539 0.70187,-0.27513 2.70876,-1.30379 2.08017,-0.88761 -2.32143,1.53696 -4.79829,2.8254 -7.18134,4.26496 -0.7244,0.43759 1.47809,-0.82524 2.20492,-1.2588 0.72915,-0.43493 1.44147,-0.89747 2.16221,-1.3462 6.48578,-4.25993 13.20305,-8.19597 20.31707,-11.30201 -16.52387,9.69011 -5.81219,4.02031 -2.86322,0.42339 2.10408,-2.77034 3.95015,-5.69583 4.98391,-9.04972 1.13126,-3.30475 1.95552,-6.70648 3.20899,-9.97093 0.86313,-2.33236 1.73508,-4.65423 2.2971,-7.08338 1.226541,-3.87303 2.205301,-7.82286 3.500044,-11.67622 1.210736,-4.17748 2.123361,-8.43391 3.419409,-12.58793 1.256522,-3.90003 2.900394,-7.52091 5.526572,-10.71501 3.50588,-4.53517 7.29498,-8.84732 10.96297,-13.25155 2.403621,-2.77657 4.764249,-5.59811 7.543221,-8.01643 0.50751,-0.44048 0.928854,-0.99441 1.502979,-1.34368 4.559787,-2.77397 9.136173,-5.70609 14.043948,-7.87959 4.067918,-1.56292 8.253822,-2.78868 12.453464,-3.94419 6.53619,-1.56731 13.18451,-2.50645 19.928148,-1.96834 9.383265,0.86243 18.7017363,2.62268 27.375503,6.44249 3.4372454,1.60433 4.644619,2.04976 7.849693,3.99712 4.25942,2.58794 8.168732,5.73704 11.950552,8.96532 6.314149,5.62449 12.289978,11.63897 17.244526,18.52491 0.82999,1.23934 1.721641,2.43954 2.48997,3.71803 3.299917,5.49101 5.284996,11.68945 6.899124,17.84718 1.828517,7.34941 3.70169,14.68952 5.209153,22.11414 2.327212,11.39308 4.285266,22.85335 6.16662,34.328 1.264132,8.57459 2.4627,17.32698 0.154768,25.8442 -0.706146,2.09401 -1.026221,3.25718 -1.990137,5.2557 -1.792013,3.71546 -4.376272,6.91211 -7.471685,9.62454 -0.959422,0.80812 -1.890178,1.65155 -2.87826,2.42436 -8.970517,7.01614 -19.315813,12.10114 -28.997476,17.98031 -11.826933,6.37651 -23.9058069,12.30778 -36.467528,17.11368 -16.263876,6.07673 -32.632374,11.88607 -49.093823,17.40506 -14.291328,4.46502 -28.846549,8.65638 -43.903585,9.27244 -8.03921,0.18502 -15.96297,0.2173 -23.41048,-3.25673 -4.61749,-2.33536 -8.86504,-5.27918 -12.00725,-9.46892 -2.28929,-3.62894 -4.21154,-7.44811 -4.07177,-11.85981 0.0835,-4.22275 0.24921,-8.4669 1.18284,-12.60345 1.08799,-4.08969 2.87789,-7.90616 4.89447,-11.61999 2.08301,-3.74397 4.20737,-7.47325 6.14509,-11.29137 1.70255,-3.69654 3.24374,-7.45914 4.42272,-11.35803 1.40717,-3.36571 2.87585,-6.7005 4.35343,-10.03561 1.78694,-4.38459 3.66126,-8.76943 4.15445,-13.53254 0.77247,-6.41638 0.84827,-12.85717 0.41232,-19.30717 -0.31262,-4.58755 -0.89018,-9.14594 -2.18245,-13.57543 -1.28111,-5.1694 -2.73187,-10.29678 -3.82051,-15.51365 -1.17245,-4.81065 -2.51281,-9.53331 -5.43834,-13.62692 -3.16611,-4.6211 -6.79637,-8.89859 -9.9847,-13.50727 -1.37348,-1.93421 -3.20538,-4.99946 -5.1774,-6.36447 -1.07148,-0.74165 -1.71147,-0.7607 -2.96209,-1.05177 -4.67403,-0.11163 -9.3106,0.70276 -13.85999,1.71847 -6.52072,1.51768 -12.99602,3.23088 -19.34807,5.35778 -5.83051,1.99719 -11.62831,4.08385 -17.39758,6.25174 -2.29663,0.91376 -2.24515,0.86082 -4.43069,1.85203 -3.82463,1.73458 -13.16882,6.92851 3.15586,-2.30394 -2.54313,1.87338 -4.80073,3.97269 -6.17373,6.88261 -1.37413,2.91533 -2.16437,6.04099 -2.77319,9.20099 0,0 -10.0662,4.95035 -10.0662,4.95035 z"
       inkscape:connector-curvature="0"
       style="stroke-width:0.26458332" />
  </g>
</svg>
